<svg preserveAspectRatio="none" overflow="visible" style="display: block;" width="17.0833" height="17.0833" viewBox="0 0 17.0833 17.0833" fill="none" xmlns="http://www.w3.org/2000/svg">
<g id="elements">
<path id="Vector 4068" d="M15.299 15.299C14.1396 16.4583 12.2736 16.4583 8.54167 16.4583C4.80971 16.4583 2.94374 16.4583 1.78437 15.299C0.625 14.1396 0.625 12.2736 0.625 8.54167C0.625 4.80971 0.624999 2.94374 1.78437 1.78437C2.94374 0.625 4.80971 0.625 8.54167 0.625C12.2736 0.625 14.1396 0.624999 15.299 1.78437C16.4583 2.94374 16.4583 4.80971 16.4583 8.54167C16.4583 12.2736 16.4583 14.1396 15.299 15.299Z" stroke="currentColor" stroke-width="1.25" stroke-linecap="round" stroke-linejoin="round"/>
<path id="Vector 4064" d="M6.04167 16.4583L6.04166 0.624999" stroke="currentColor" stroke-width="1.25"/>
<path id="Vector 4069" d="M16.4583 5.20833L0.625001 5.20833" stroke="currentColor" stroke-width="1.25"/>
<path id="Vector 4070" d="M16.4583 11.875L0.624998 11.875" stroke="currentColor" stroke-width="1.25"/>
</g>
</svg>
