<svg preserveAspectRatio="none" overflow="visible" style="display: block;" width="34.125" height="37.625" viewBox="0 0 34.125 37.625" fill="none" xmlns="http://www.w3.org/2000/svg">
<g id="elements">
<path id="Vector" d="M27.5625 24.9375H26.25C26.25 25.2856 26.3883 25.6195 26.6344 25.8656C26.8806 26.1117 27.2144 26.25 27.5625 26.25L27.5625 24.9375ZM18.8125 20.5625L18.8125 19.25L17.5 19.2501V20.5625H18.8125ZM21.9007 20.5625L21.9007 19.25H21.9007L21.9007 20.5625ZM21.9007 24.9375L21.9007 23.625H21.9007L21.9007 24.9375ZM8.3125 20.5625L9.30025 19.6982C8.94018 19.2867 8.36272 19.1416 7.85086 19.3339C7.339 19.5262 7 20.0157 7 20.5625H8.3125ZM14.4375 20.5625H15.75C15.75 20.0157 15.411 19.5262 14.8991 19.3339C14.3873 19.1415 13.8098 19.2867 13.4497 19.6982L14.4375 20.5625ZM11.375 24.0625L10.3872 24.9268L11.375 26.0557L12.3628 24.9268L11.375 24.0625ZM32.8125 19.6875H31.5V24.9375H32.8125H34.125V19.6875H32.8125ZM32.8125 24.9375H31.5V29.3125H32.8125H34.125V24.9375H32.8125ZM27.5625 19.6875H26.25V24.9375H27.5625H28.875V19.6875H27.5625ZM27.5625 24.9375L27.5625 26.25L32.8125 26.25L32.8125 24.9375L32.8125 23.625L27.5625 23.625L27.5625 24.9375ZM18.8125 20.5625L18.8125 21.875L21.9007 21.875L21.9007 20.5625L21.9007 19.25L18.8125 19.25L18.8125 20.5625ZM18.8125 29.3125H20.125V24.9375H18.8125H17.5V29.3125H18.8125ZM18.8125 24.9375H20.125V20.5625H18.8125H17.5V24.9375H18.8125ZM21.9007 24.9375L21.9007 23.625L18.8125 23.625L18.8125 24.9375L18.8125 26.25L21.9007 26.25L21.9007 24.9375ZM8.3125 29.3125H9.625V20.5625H8.3125H7V29.3125H8.3125ZM14.4375 20.5625H13.125V29.3125H14.4375H15.75V20.5625H14.4375ZM21.9007 24.9375L21.9007 26.25C23.8341 26.25 25.375 24.6683 25.375 22.75H24.0625H22.75C22.75 23.2479 22.3552 23.625 21.9007 23.625L21.9007 24.9375ZM21.9007 20.5625L21.9007 21.875C22.3552 21.875 22.75 22.2521 22.75 22.75H24.0625H25.375C25.375 20.8317 23.8341 19.25 21.9007 19.25L21.9007 20.5625ZM8.3125 20.5625L7.32474 21.4268L10.3872 24.9268L11.375 24.0625L12.3628 23.1982L9.30025 19.6982L8.3125 20.5625ZM11.375 24.0625L12.3628 24.9268L15.4253 21.4268L14.4375 20.5625L13.4497 19.6982L10.3872 23.1982L11.375 24.0625Z" fill="#9CA3AF"/>
<path id="Vector_2" d="M1.3125 36.3125H1.3113e-06C1.43051e-06 37.0374 0.587628 37.625 1.3125 37.625V36.3125ZM31.0625 1.3125H32.375C32.375 0.587628 31.7874 1.54972e-06 31.0625 1.54972e-06V1.3125ZM13.5625 1.3125V0H13.0188L12.6344 0.384422L13.5625 1.3125ZM1.3125 13.5625L0.384422 12.6344L0 13.0188V13.5625H1.3125ZM13.5625 13.5625V14.875H14.875V13.5625H13.5625ZM31.0625 36.3125V35H1.3125V36.3125V37.625H31.0625V36.3125ZM31.0625 1.3125H29.75V15.3125H31.0625H32.375V1.3125H31.0625ZM31.0625 1.3125V1.54972e-06L13.5625 0V1.3125V2.625L31.0625 2.625V1.3125ZM1.3125 13.5625H0L1.3113e-06 36.3125H1.3125H2.625L2.625 13.5625H1.3125ZM13.5625 1.3125L12.6344 0.384422L0.384422 12.6344L1.3125 13.5625L2.24058 14.4906L14.4906 2.24058L13.5625 1.3125ZM13.5625 1.3125L12.25 1.3125L12.25 13.5625H13.5625H14.875L14.875 1.3125L13.5625 1.3125ZM13.5625 13.5625V12.25L1.3125 12.25L1.3125 13.5625L1.3125 14.875L13.5625 14.875V13.5625Z" fill="#9CA3AF"/>
</g>
</svg>
