<svg preserveAspectRatio="none" overflow="visible" style="display: block;" width="17.9167" height="17.9167" viewBox="0 0 17.9167 17.9167" fill="none" xmlns="http://www.w3.org/2000/svg">
<g id="elements">
<path id="Vector" d="M3.125 12.2917L7.29167 9.79167M10.625 8.125L14.7917 5.625M8.95833 3.125V7.29167M8.95833 10.625V14.7917M3.125 5.625L7.29167 8.125M10.625 9.79167L14.7917 12.2917" stroke="currentColor" stroke-width="1.25" stroke-linejoin="round"/>
<path id="Polygon 45" d="M16.0417 6.45834V11.0417M10.2083 16.0417L14.7917 13.5417M2.70833 13.5417L7.70833 16.0417M1.875 11.4583V6.45834M2.70833 4.375L7.70833 1.875M15.2083 4.375L10.2083 1.875" stroke="currentColor" stroke-width="1.25" stroke-linejoin="round"/>
<circle id="Ellipse 1998" cx="8.95833" cy="1.875" r="1.25" stroke="currentColor" stroke-width="1.25" stroke-linejoin="round"/>
<circle id="Ellipse 2003" cx="8.95833" cy="16.0417" r="1.25" stroke="currentColor" stroke-width="1.25" stroke-linejoin="round"/>
<circle id="Ellipse 1999" cx="1.875" cy="5.20833" r="1.25" stroke="currentColor" stroke-width="1.25" stroke-linejoin="round"/>
<circle id="Ellipse 2000" cx="16.0417" cy="5.20833" r="1.25" stroke="currentColor" stroke-width="1.25" stroke-linejoin="round"/>
<circle id="Ellipse 2001" cx="16.0417" cy="12.7083" r="1.25" stroke="currentColor" stroke-width="1.25" stroke-linejoin="round"/>
<circle id="Ellipse 2002" cx="1.875" cy="12.7083" r="1.25" stroke="currentColor" stroke-width="1.25" stroke-linejoin="round"/>
<path id="Polygon 48" d="M8.95833 7.08333L10.625 8.02083V9.89583L8.95833 10.8333L7.29167 9.89583V8.02083L8.95833 7.08333Z" stroke="currentColor" stroke-width="1.25" stroke-linejoin="round"/>
</g>
</svg>
