<svg preserveAspectRatio="none" overflow="visible" style="display: block;" width="20" height="20" viewBox="0 0 20 20" fill="none" xmlns="http://www.w3.org/2000/svg">
<g id="scrool-icon">
<path id="Union" d="M12.7226 12.5361C12.9233 12.3546 13.2484 12.3546 13.4492 12.5361C13.65 12.7181 13.65 13.0133 13.4492 13.1953L10.8486 15.5527C10.7448 15.6468 10.6309 15.7511 10.5224 15.8262C10.417 15.8991 10.2714 15.9767 10.0839 15.9951L9.99994 16C9.77135 16 9.59809 15.9096 9.47748 15.8262C9.36898 15.7511 9.25505 15.6467 9.15131 15.5527L6.55072 13.1953C6.35004 13.0133 6.34993 12.7181 6.55072 12.5361C6.75156 12.3544 7.07748 12.3543 7.27826 12.5361L9.87885 14.8936C9.92679 14.937 9.96577 14.973 9.99994 15.0029C10.0342 14.9729 10.0739 14.9371 10.122 14.8936L12.7226 12.5361ZM10.0839 4.00488C10.2714 4.02334 10.417 4.10094 10.5224 4.17383C10.6309 4.24891 10.7448 4.35323 10.8486 4.44727L13.4492 6.80469C13.65 6.98669 13.65 7.28186 13.4492 7.46387C13.2484 7.64537 12.9233 7.64536 12.7226 7.46387L10.122 5.10645C10.0739 5.06287 10.0342 5.02711 9.99994 4.99707C9.96577 5.02705 9.92679 5.063 9.87885 5.10645L7.27826 7.46387C7.07748 7.64573 6.75156 7.64565 6.55072 7.46387C6.34993 7.28191 6.35004 6.9867 6.55072 6.80469L9.15131 4.44727C9.25505 4.35325 9.36898 4.24895 9.47748 4.17383C9.59809 4.09044 9.77135 4.00004 9.99994 4L10.0839 4.00488Z" fill="#6B7280"/>
</g>
</svg>
